# xmcd CD database file generated by Grip 3.3.1
# 
# Track frame offsets:
#       150
#       48302
#       85194
#       87484
#       96727
#       104118
#       113011
#       122794
#       139029
#       151819
#       172989
#       184205
#       191739
#       251453
#       292653
#       315601
# 
# Disc length: 4716 seconds
# 
# Revision: 1
# Processed by: cddbd v1.5.2PL0 Copyright (c) Steve Scherf et al.
# Submitted via: Grip 3.3.1
# 
DISCID=dd126a10
DTITLE=The Radio Legacy RCO 1950-1960 CD 25 - The Radio Legacy RCO 1950-
DTITLE=1960 CD 25
DYEAR=1951
DGENRE=Classical
TTITLE0=Debussy - Leopold Stokowski - Prélude à l'après-midi d'un faun
TTITLE0=e (1892-94)
TTITLE1=Berlioz - Stokowski - Le carnaval romain (1843-44)
TTITLE2=de Falla - Leopold Stokowski - I. Introduction and Scene - Suite 
TTITLE2=from 'El amor brujo'(1915)
TTITLE3=de Falla - Leopold Stokowski - II. In the Cave (Night) - Suite fr
TTITLE3=om 'El amor brujo'
TTITLE4=de Falla - Leopold Stokowski - III. Song of Unhappy Love - Suite 
TTITLE4=from 'El amor brujo'
TTITLE5=de Falla - Leopold Stokowski - IV. The Spectre - Terror Dance - S
TTITLE5=uite from 'El amor brujo'
TTITLE6=V. The Magic Circle (Ballade of the Fisherman)
TTITLE7=de Falla - Leopold Stokowski - VI. At Midnight (The Sortileges) -
TTITLE7=Ritual Fire Dance - Suite from 'El amor brujo'
TTITLE8=de Falla - Leopold Stokowski - VII. Scene - Song of the Will-o'-t
TTITLE8=he wisp - Suite from 'El amor brujo'
TTITLE9=de Falla - Leopold Stokowski - VIII. Pantomine - Suite from 'El a
TTITLE9=mor brujo'
TTITLE10=de Falla - Leopold Stokowski - IX. Dance of the Game of Love - Su
TTITLE10=ite from 'El amor brujo'
TTITLE11=de Falla - Leopold Stokowski - X. Finale (The Morning Bells) - Su
TTITLE11=ite from 'El amor brujo'
TTITLE12=Brahms - Leopold Stokowski - I. Allegro non troppo - Symphony No.
TTITLE12=2 in D major, Op.73 (1877)
TTITLE13=Brahms - Leopold Stokowski - II. Adagio non troppo - Symphony No.
TTITLE13=2 in D major, Op.73
TTITLE14=Brahms - Leopold Stokowski - III. Allegretto grazioso - Symphony 
TTITLE14=No.2 in D major, Op.73
TTITLE15=Brahms - Leopold Stokowski - IV. Allegro con spirito - Symphony N
TTITLE15=o.2 in D major, Op.73
EXTD=
EXTT0=
EXTT1=
EXTT2=
EXTT3=
EXTT4=
EXTT5=
EXTT6=
EXTT7=
EXTT8=
EXTT9=
EXTT10=
EXTT11=
EXTT12=
EXTT13=
EXTT14=
EXTT15=
PLAYORDER=
